<svg width="378" height="58" viewBox="0 0 378 58" fill="none" xmlns="http://www.w3.org/2000/svg">
<path d="M28.456 57.864C24.472 57.864 20.776 57.216 17.368 55.92C14.008 54.624 11.08 52.8 8.584 50.448C6.136 48.096 4.216 45.336 2.824 42.168C1.48 39 0.808 35.544 0.808 31.8C0.808 28.056 1.48 24.6 2.824 21.432C4.216 18.264 6.16 15.504 8.656 13.152C11.152 10.8 14.08 8.976 17.44 7.68C20.8 6.384 24.448 5.736 28.384 5.736C32.368 5.736 36.016 6.384 39.328 7.68C42.688 8.976 45.592 10.8 48.04 13.152C50.536 15.504 52.48 18.264 53.872 21.432C55.264 24.552 55.96 28.008 55.96 31.8C55.96 35.544 55.264 39.024 53.872 42.24C52.48 45.408 50.536 48.168 48.04 50.52C45.592 52.824 42.688 54.624 39.328 55.92C36.016 57.216 32.392 57.864 28.456 57.864ZM28.384 47.928C30.64 47.928 32.704 47.544 34.576 46.776C36.496 46.008 38.176 44.904 39.616 43.464C41.056 42.024 42.16 40.32 42.928 38.352C43.744 36.384 44.152 34.2 44.152 31.8C44.152 29.4 43.744 27.216 42.928 25.248C42.16 23.28 41.056 21.576 39.616 20.136C38.224 18.696 36.568 17.592 34.648 16.824C32.728 16.056 30.64 15.672 28.384 15.672C26.128 15.672 24.04 16.056 22.12 16.824C20.248 17.592 18.592 18.696 17.152 20.136C15.712 21.576 14.584 23.28 13.768 25.248C13 27.216 12.616 29.4 12.616 31.8C12.616 34.152 13 36.336 13.768 38.352C14.584 40.32 15.688 42.024 17.08 43.464C18.52 44.904 20.2 46.008 22.12 46.776C24.04 47.544 26.128 47.928 28.384 47.928ZM63.934 57V18.264H74.662V29.208L73.15 26.04C74.302 23.304 76.15 21.24 78.694 19.848C81.238 18.408 84.334 17.688 87.982 17.688V28.056C87.502 28.008 87.07 27.984 86.686 27.984C86.302 27.936 85.894 27.912 85.462 27.912C82.39 27.912 79.894 28.8 77.974 30.576C76.102 32.304 75.166 35.016 75.166 38.712V57H63.934ZM94.7309 57V18.264H105.963V57H94.7309ZM100.347 12.864C98.2829 12.864 96.6029 12.264 95.3069 11.064C94.0109 9.864 93.3629 8.376 93.3629 6.6C93.3629 4.824 94.0109 3.336 95.3069 2.136C96.6029 0.935997 98.2829 0.335996 100.347 0.335996C102.411 0.335996 104.091 0.911997 105.387 2.064C106.683 3.168 107.331 4.608 107.331 6.384C107.331 8.256 106.683 9.816 105.387 11.064C104.139 12.264 102.459 12.864 100.347 12.864ZM134.819 57.576C130.691 57.576 127.019 56.712 123.803 54.984C120.635 53.256 118.115 50.904 116.243 47.928C114.419 44.904 113.507 41.472 113.507 37.632C113.507 33.744 114.419 30.312 116.243 27.336C118.115 24.312 120.635 21.96 123.803 20.28C127.019 18.552 130.691 17.688 134.819 17.688C138.899 17.688 142.547 18.552 145.763 20.28C148.979 21.96 151.499 24.288 153.323 27.264C155.147 30.24 156.059 33.696 156.059 37.632C156.059 41.472 155.147 44.904 153.323 47.928C151.499 50.904 148.979 53.256 145.763 54.984C142.547 56.712 138.899 57.576 134.819 57.576ZM134.819 48.36C136.691 48.36 138.371 47.928 139.859 47.064C141.347 46.2 142.523 44.976 143.387 43.392C144.251 41.76 144.683 39.84 144.683 37.632C144.683 35.376 144.251 33.456 143.387 31.872C142.523 30.288 141.347 29.064 139.859 28.2C138.371 27.336 136.691 26.904 134.819 26.904C132.947 26.904 131.267 27.336 129.779 28.2C128.291 29.064 127.091 30.288 126.179 31.872C125.315 33.456 124.883 35.376 124.883 37.632C124.883 39.84 125.315 41.76 126.179 43.392C127.091 44.976 128.291 46.2 129.779 47.064C131.267 47.928 132.947 48.36 134.819 48.36ZM187.111 17.688C190.183 17.688 192.919 18.312 195.319 19.56C197.767 20.76 199.687 22.632 201.079 25.176C202.471 27.672 203.167 30.888 203.167 34.824V57H191.935V36.552C191.935 33.432 191.239 31.128 189.847 29.64C188.503 28.152 186.583 27.408 184.087 27.408C182.311 27.408 180.703 27.792 179.263 28.56C177.871 29.28 176.767 30.408 175.951 31.944C175.183 33.48 174.799 35.448 174.799 37.848V57H163.567V18.264H174.295V28.992L172.279 25.752C173.671 23.16 175.663 21.168 178.255 19.776C180.847 18.384 183.799 17.688 187.111 17.688Z" fill="black"/>
<path d="M215.724 57V6.6H236.964C242.34 6.6 247.068 7.656 251.148 9.768C255.276 11.88 258.468 14.832 260.724 18.624C263.028 22.416 264.18 26.808 264.18 31.8C264.18 36.792 263.028 41.184 260.724 44.976C258.468 48.768 255.276 51.72 251.148 53.832C247.068 55.944 242.34 57 236.964 57H215.724ZM222.924 50.736H236.532C240.708 50.736 244.308 49.944 247.332 48.36C250.404 46.776 252.78 44.568 254.46 41.736C256.14 38.856 256.98 35.544 256.98 31.8C256.98 28.008 256.14 24.696 254.46 21.864C252.78 19.032 250.404 16.824 247.332 15.24C244.308 13.656 240.708 12.864 236.532 12.864H222.924V50.736ZM297.888 57V48.936L297.528 47.424V33.672C297.528 30.744 296.664 28.488 294.936 26.904C293.256 25.272 290.712 24.456 287.304 24.456C285.048 24.456 282.84 24.84 280.68 25.608C278.52 26.328 276.696 27.312 275.208 28.56L272.328 23.376C274.296 21.792 276.648 20.592 279.384 19.776C282.168 18.912 285.072 18.48 288.096 18.48C293.328 18.48 297.36 19.752 300.192 22.296C303.024 24.84 304.44 28.728 304.44 33.96V57H297.888ZM285.36 57.432C282.528 57.432 280.032 56.952 277.872 55.992C275.76 55.032 274.128 53.712 272.976 52.032C271.824 50.304 271.248 48.36 271.248 46.2C271.248 44.136 271.728 42.264 272.688 40.584C273.696 38.904 275.304 37.56 277.512 36.552C279.768 35.544 282.792 35.04 286.584 35.04H298.68V40.008H286.872C283.416 40.008 281.088 40.584 279.888 41.736C278.688 42.888 278.088 44.28 278.088 45.912C278.088 47.784 278.832 49.296 280.32 50.448C281.808 51.552 283.872 52.104 286.512 52.104C289.104 52.104 291.36 51.528 293.28 50.376C295.248 49.224 296.664 47.544 297.528 45.336L298.896 50.088C297.984 52.344 296.376 54.144 294.072 55.488C291.768 56.784 288.864 57.432 285.36 57.432ZM330.336 57.432C326.496 57.432 323.52 56.4 321.408 54.336C319.296 52.272 318.24 49.32 318.24 45.48V10.488H325.152V45.192C325.152 47.256 325.656 48.84 326.664 49.944C327.72 51.048 329.208 51.6 331.128 51.6C333.288 51.6 335.088 51 336.528 49.8L338.688 54.768C337.632 55.68 336.36 56.352 334.872 56.784C333.432 57.216 331.92 57.432 330.336 57.432ZM311.76 24.528V18.84H336.096V24.528H311.76ZM370.732 57V48.936L370.372 47.424V33.672C370.372 30.744 369.508 28.488 367.78 26.904C366.1 25.272 363.556 24.456 360.148 24.456C357.892 24.456 355.684 24.84 353.524 25.608C351.364 26.328 349.54 27.312 348.052 28.56L345.172 23.376C347.14 21.792 349.492 20.592 352.228 19.776C355.012 18.912 357.916 18.48 360.94 18.48C366.172 18.48 370.204 19.752 373.036 22.296C375.868 24.84 377.284 28.728 377.284 33.96V57H370.732ZM358.204 57.432C355.372 57.432 352.876 56.952 350.716 55.992C348.604 55.032 346.972 53.712 345.82 52.032C344.668 50.304 344.092 48.36 344.092 46.2C344.092 44.136 344.572 42.264 345.532 40.584C346.54 38.904 348.148 37.56 350.356 36.552C352.612 35.544 355.636 35.04 359.428 35.04H371.524V40.008H359.716C356.26 40.008 353.932 40.584 352.732 41.736C351.532 42.888 350.932 44.28 350.932 45.912C350.932 47.784 351.676 49.296 353.164 50.448C354.652 51.552 356.716 52.104 359.356 52.104C361.948 52.104 364.204 51.528 366.124 50.376C368.092 49.224 369.508 47.544 370.372 45.336L371.74 50.088C370.828 52.344 369.22 54.144 366.916 55.488C364.612 56.784 361.708 57.432 358.204 57.432Z" fill="black"/>
</svg>
